General
      Complete name : Saving.Private.Ryan.1998.HDRip.H264.AAC.5.1ch.Gopo.mp4
      Format : MPEG-4
      Format profile : Base Media
      Codec ID : isom
      File size : 2.50 GiB
      Duration : 2h 42mn
      Overall bit rate : 2 207 Kbps
      Encoded date : UTC 2009-12-21 00:44:32
      Tagged date : UTC 2009-12-21 00:44:32
      Writing application : Yamb 2.1.0.0 [http://yamb.unite-video.com]
   Video #1
      ID : 1
      Format : AVC
      Format/Info : Advanced Video Codec
      Format profile : High@L4.1
      Format settings, CABAC : Yes
      Format settings, ReFrames : 5 frames
      Codec ID : avc1
      Codec ID/Info : Advanced Video Coding
      Duration : 2h 42mn
      Bit rate mode : Variable
      Bit rate : 1 839 Kbps
      Maximum bit rate : 7 520 Kbps
      Width : 1 280 pixels
      Height : 720 pixels
      Display aspect ratio : 16:9
      Frame rate mode : Constant
      Frame rate : 23.976 fps
      Resolution : 24 bits
      Colorimetry : 4:2:0
      Scan type : Progressive
      Bits/(Pixel*Frame) : 0.083
      Stream size : 2.09 GiB (83%)
      Writing library : x264 core 79 r1360 528c100
      Encoding settings : cabac=1 / ref=5 / deblock=1:0:0 / analyse=0x3:0x113 / me=umh / subme=8 / psy=1 / psy_rd=1.0:0.0 / mixed_ref=1 / me_range=16 / chroma_me=1 / trellis=2 / 8x8dct=1 / cqm=0 / deadzone=21,11 / chroma_qp_offset=-2 / threads=1 / nr=0 / decimate=1 / mbaff=0 / constrained_intra=0 / bframes=3 / b_pyramid=0 / b_adapt=2 / b_bias=0 / direct=3 / wpredb=1 / wpredp=2 / keyint=250 / keyint_min=25 / scenecut=40 / rc_lookahead=30 / rc=2pass / mbtree=1 / bitrate=1839 / ratetol=1.0 / qcomp=0.50 / qpmin=10 / qpmax=51 / qpstep=4 / cplxblur=20.0 / qblur=0.5 / vbv_maxrate=24000 / vbv_bufsize=24000 / ip_ratio=1.10 / aq=1:1.00 / cabac=1 / ref=5 / deblock=1:0:0 / analyse=0x3:0x113 / me=umh / subme=8 / psy=1 / psy_rd=1.0:0.0 / mixed_ref=1 / me_range=16 / chroma_me=1 / trellis=2 / 8x8dct=1 / cqm=0 / deadzone=21,11 / chroma_qp_offset=-2 / threads=1 / nr=0 / decimate=1 / mbaff=0 / constrained_intra=0 / bframes=3 / b_pyramid=0 / b_adapt=2 / b_bias=0 / direct=3 / wpredb=1 / wpredp=2 / keyint=250 / keyint_min=25 / scenecut=40 / rc_lookahead=30 / rc=2pass / mbtree=1 / bitrate=1839 / ratetol=1.0 / qcomp=0.50 / qpmin=10 / qpmax=51 / qpstep=4 / cplxblur=20.0 / qblur=0.5 / vbv_maxrate=24000 / vbv_bufsize=24000 / ip_ratio=1.10 / aq=1:1.00
      Encoded date : UTC 2009-12-19 02:27:00
      Tagged date : UTC 2009-12-21 00:47:41
   Audio #2
      ID : 2
      Format : AAC
      Format/Info : Advanced Audio Codec
      Format version : Version 4
      Format profile : LC
      Format settings, SBR : No
      Codec ID : 40
      Duration : 2h 42mn
      Bit rate mode : Variable
      Bit rate : 364 Kbps
      Maximum bit rate : 469 Kbps
      Channel(s) : 6 channels
      Channel positions : Front: L C R, Rear: L R, LFE
      Sampling rate : 48.0 KHz
      Resolution : 16 bits
      Stream size : 424 MiB (17%)
      Encoded date : UTC 2009-12-21 00:47:14
      Tagged date : UTC 2009-12-21 00:47:41
	Sample : YES
	Subtitle : English,Romanian

PLOT

Opening with the Allied invasion of Normandy on 6 June 1944, members of the 2nd Ranger Battalion under Cpt. Miller fight ashore to secure a beachhead. Amidst the fighting, two brothers are killed in action. Earlier in New Guinea, a third brother is KIA. Their mother, Mrs. Ryan, is to receive all three of the grave telegrams on the same day. The United States Army Chief of Staff, George C. Marshall, is given an opportunity to alleviate some of her grief when he learns of a fourth brother, Private James Ryan, and decides to send out 8 men (Cpt. Miller and select members from 2nd Rangers) to find him and bring him back home to his mother...
Director: Steven Spielberg
CASTING 
     
     Tom Hanks	... 	Capt. John H. Miller
	Tom Sizemore	... 	Sgt. Mike Horvath
	Edward Burns	... 	Pvt. Richard Reiben
	Barry Pepper	... 	Pvt. Daniel Jackson
	Adam Goldberg	... 	Pvt. Stanley Mellish
	Vin Diesel	... 	Pvt. Adrian Caparzo
	Giovanni Ribisi	... 	T-5 Medic Irwin Wade
	Jeremy Davies	... 	Cpl. Timothy P. Upham
	Matt Damon	... 	Pvt. James Francis Ryan
	Ted Danson	... 	Capt. Fred Hamill
	Paul Giamatti	... 	Sgt. Hill
	Dennis Farina	... 	Lt. Col. Anderson
	Joerg Stadler	... 	Steamboat Willie
	Max Martini	... 	Cpl. Henderson (as Maximilian Martini)
	Dylan Bruno	... 	Toynbe

SOURCE: Saving.Private.Ryan.720p.HDTV.Premiere.DTS.x264-ESiR.mkv

Notes: For best performance I suggest you to use KMPlayer(find it with google) for playback
I haven't tested the movies on a PS3 or Xbox or other devices than PC because I don't own one of them but feel free to test them if you have the oportunity.
